<?xml version="1.0" encoding="UTF-8" standalone="no"?>
<svg
   width="216.06mm"
   height="65mm"
   version="1.1"
   viewBox="0 0 216.06 65"
   xml:space="preserve"
   id="svg116"
   sodipodi:docname="train2.svg"
   inkscape:version="1.2.2 (732a01da63, 2022-12-09, custom)"
   xmlns:inkscape="http://www.inkscape.org/namespaces/inkscape"
   xmlns:sodipodi="http://sodipodi.sourceforge.net/DTD/sodipodi-0.dtd"
   xmlns:xlink="http://www.w3.org/1999/xlink"
   xmlns="http://www.w3.org/2000/svg"
   xmlns:svg="http://www.w3.org/2000/svg"
   xmlns:rdf="http://www.w3.org/1999/02/22-rdf-syntax-ns#"
   xmlns:cc="http://creativecommons.org/ns#"
   xmlns:dc="http://purl.org/dc/elements/1.1/"><sodipodi:namedview
     id="namedview118"
     pagecolor="#505050"
     bordercolor="#eeeeee"
     borderopacity="1"
     inkscape:showpageshadow="0"
     inkscape:pageopacity="0"
     inkscape:pagecheckerboard="0"
     inkscape:deskcolor="#505050"
     inkscape:document-units="mm"
     showgrid="false"
     inkscape:zoom="1.1343431"
     inkscape:cx="450.92179"
     inkscape:cy="225.2405"
     inkscape:window-width="1920"
     inkscape:window-height="1016"
     inkscape:window-x="0"
     inkscape:window-y="27"
     inkscape:window-maximized="1"
     inkscape:current-layer="svg116" /><defs
     id="defs34"><linearGradient
       id="linearGradient39183"><stop
         stop-color="#fea"
         stop-opacity=".8"
         offset="0"
         id="stop18" /><stop
         stop-color="#fea"
         stop-opacity=".41961"
         offset=".30993"
         id="stop20" /><stop
         stop-color="#fea"
         stop-opacity="0"
         offset="1"
         id="stop22" /></linearGradient><linearGradient
       id="linearGradient37661"><stop
         stop-color="#fea"
         stop-opacity=".8"
         offset="0"
         id="stop25" /><stop
         stop-color="#fea"
         stop-opacity=".56471"
         offset=".23973"
         id="stop27" /><stop
         stop-color="#fea"
         stop-opacity="0"
         offset="1"
         id="stop29" /></linearGradient><linearGradient
       id="linearGradient37663"
       x1="216.07"
       x2="238.41"
       y1="151.49"
       y2="151.49"
       gradientUnits="userSpaceOnUse"
       xlink:href="#linearGradient37661" /><linearGradient
       id="linearGradient39185"
       x1="173.41"
       x2="185.2"
       y1="173.64"
       y2="173.64"
       gradientUnits="userSpaceOnUse"
       xlink:href="#linearGradient39183" /></defs><metadata
     id="metadata36"><rdf:RDF><cc:Work
         rdf:about=""><dc:format>image/svg+xml</dc:format><dc:type
           rdf:resource="http://purl.org/dc/dcmitype/StillImage" /></cc:Work></rdf:RDF></metadata><g
     transform="translate(14.99 -150.49)"
     id="g114"><path
       d="m119.16 170.92c-0.25577 0-0.4619 0.20564-0.4619 0.46141v27.447c0 0.25577 0.20613 0.46189 0.4619 0.46189s0.46141-0.20612 0.46141-0.46189c0 0.25577 0.20613 0.46189 0.4619 0.46189s0.46141-0.20612 0.46141-0.46189c0 0.25577 0.20613 0.46189 0.4619 0.46189s0.46141-0.20612 0.46141-0.46189v-27.447c0-0.25577-0.20564-0.46141-0.46141-0.46141s-0.4619 0.20564-0.4619 0.46141c0-0.25577-0.20564-0.46141-0.46141-0.46141s-0.4619 0.20564-0.4619 0.46141c0-0.25577-0.20564-0.46141-0.46141-0.46141z"
       fill="#59585a"
       stroke-width=".19244"
       id="path38" /><path
       d="m65.082 170.92c-0.25577 0-0.4619 0.20564-0.4619 0.46141v27.447c0 0.25577 0.20612 0.46189 0.4619 0.46189s0.46142-0.20612 0.46142-0.46189c0 0.25577 0.20612 0.46189 0.4619 0.46189s0.46142-0.20612 0.46142-0.46189c0 0.25577 0.20612 0.46189 0.4619 0.46189 0.25577 0 0.46141-0.20612 0.46141-0.46189v-27.447c0-0.25577-0.20564-0.46141-0.46141-0.46141-0.25577 0-0.4619 0.20564-0.4619 0.46141 0-0.25577-0.20564-0.46141-0.46142-0.46141s-0.4619 0.20564-0.4619 0.46141c0-0.25577-0.20564-0.46141-0.46142-0.46141z"
       fill="#59585a"
       stroke-width=".19244"
       id="path40" /><g
       transform="matrix(.92337 0 0 .92337 .51389 12.899)"
       id="g60"><g
         fill="#090705"
         stroke-width=".26458"
         id="g46"><path
           d="m116.44 196.46a5.9507 6.018 0 0 0-5.9505 6.0177 5.9507 6.018 0 0 0 2.4381 4.8307h7.0549a5.9507 6.018 0 0 0 2.4086-4.8307 5.9507 6.018 0 0 0-5.9511-6.0177z"
           id="path42" /><path
           d="m83.547 196.46a5.9507 6.018 0 0 0-5.9511 6.0177 5.9507 6.018 0 0 0 2.4092 4.8307h7.09a5.9507 6.018 0 0 0 2.4024-4.8307 5.9507 6.018 0 0 0-5.9505-6.0177z"
           id="path44" /></g><path
         d="m72.427 168.36h55.563v37.141h-55.563z"
         fill="#ff9b00"
         stop-color="#000000"
         stroke-miterlimit="0"
         stroke-width="0"
         style="paint-order:markers stroke fill"
         id="path48" /><path
         d="m72.427 201.86h55.563v3.6391h-55.563z"
         fill="#960110"
         stroke-width=".22226"
         id="path50" /><path
         d="m72.441 178.5c-0.0014 5.7772 7e-3 11.564-0.01344 17.322h55.549c1e-3 -5.7772-7e-3 -11.564 0.0134-17.322h-55.549z"
         fill="#090705"
         stroke-width=".19764"
         id="path52" /><path
         d="m105.78 181.42h16.808v11.479h-16.808z"
         fill="#fea"
         stroke-width=".26458"
         id="path54" /><path
         d="m77.845 181.42h16.808v11.479h-16.808z"
         fill="#fea"
         stroke-width=".26458"
         id="path56" /><path
         d="m72.427 168.36h55.541v2.8165h-55.541z"
         fill="#090705"
         stroke-width=".24464"
         id="path58" /></g><path
       transform="rotate(12.334)"
       d="m234.71 142.35-18.648 6.1263 0.70089 3.2465 11.171 7.5803 6.3791-1.3949a17.658 12.458 0 0 0 4.0968-7.928 17.658 12.458 0 0 0-3.7002-7.6302z"
       fill="url(#linearGradient37663)"
       stop-color="#000000"
       style="paint-order:markers stroke fill"
       id="path62" /><path
       d="m183.59 171-10.084 1.2738 0.38137 1.9523 10.236 2.0547a13.519 6.3603 0 0 0 0.97462-2.3621 13.519 6.3603 0 0 0-1.5079-2.9187z"
       fill="url(#linearGradient39185)"
       stop-color="#000000"
       style="paint-order:markers stroke fill"
       id="path64" /><g
       transform="matrix(.92337 0 0 .92337 .51389 12.899)"
       fill="#090705"
       stroke-width=".26458"
       id="g70"><path
         transform="scale(-1,1)"
         d="m-142.54 196.42a5.9507 6.018 0 0 1 5.9505 6.0182 5.9507 6.018 0 0 1-2.5006 4.8705h-6.9365a5.9507 6.018 0 0 1-2.4639-4.8705 5.9507 6.018 0 0 1 5.9505-6.0182z"
         id="path66" /><path
         transform="scale(-1,1)"
         d="m-175.43 196.42a5.9507 6.018 0 0 1 5.9511 6.0182 5.9507 6.018 0 0 1-2.4624 4.8705h-6.983a5.9507 6.018 0 0 1-2.4562-4.8705 5.9507 6.018 0 0 1 5.9505-6.0182z"
         id="path68" /></g><path
       d="m121.49 168.32c-6e-3 11.432-7e-3 22.863-0.0101 34.295h53.508c1.6567 0 2.6804-0.51062 3.3129-1.2091l-0.20136-0.0405 0.0897 0.0176 0.11166 0.0229c1.0492-1.1588 1.0232-2.8353 1.0288-3.5568l0.0271-3.3206-8e-3 -0.0143v-5e-3l0.0272-3.302c0.13832-1.2592-1.3208-2.6273-2.7222-2.9942l-3.103-15.733c-0.54411-3.2338-2.5368-4.1599-5.7775-4.1599l-9.3e-4 6e-3v-6e-3z"
       fill="#ff9b00"
       stroke-width=".26851"
       id="path72" /><path
       d="m121.46 199.26v3.3602h53.508c1.6567 0 2.6804-0.51061 3.3129-1.2091l-0.20135-0.041 0.20088 0.0405-3.7605-2.1506h-6.8382z"
       fill="#960110"
       stroke-width=".19501"
       id="path74" /><path
       d="m121.47 168.32v2.6005h46.282c0.48706 0 1.1134 0.29786 1.9312 1.3073 0.74882 0.92435 2.6203 4.6856 3.3362 7.3269 0.7159 2.6413 0.9328 3.5196 1.1342 4.42 0.3745 1.6806 0.70713 3.4902 0.95576 5.2726 0.56752 4.0685 2.49 4.7394 4.2191 5.2808v-0.0191l0.0272-3.302c0.13832-1.2592-1.3208-2.6273-2.7222-2.9942l-3.103-15.733c-0.54411-3.2339-2.5368-4.1599-5.7775-4.1599l-9.2e-4 6e-3v-6e-3z"
       fill="#090705"
       stroke-width=".21459"
       id="path76" /><path
       d="m121.46 177.68c0.0143 5.322 0.0124 10.658 0.0124 15.995h51.588v-2.5762c0-1.3722-3.1736-13.417-5.2989-13.419h-4.7e-4z"
       fill="#090705"
       stroke-width=".17339"
       id="path78" /><path
       d="m141.98 180.38h-15.52v10.599h15.52z"
       fill="#fea"
       stroke-width=".24431"
       id="path80" /><path
       d="m152.25 180.38v10.599h15.52v-9.7833l0.0114 9.7833h3.804l-3.8087-10.579-6e-3 -0.0176v-3e-3h-9.2e-4z"
       fill="#fea"
       stroke-width=".24431"
       id="path82" /><path
       d="m144.63 160.72c-0.44827 0-0.81814 0.33236-0.87953 0.76378h0.20153c0.0585-0.32245 0.3373-0.56276 0.678-0.56276h1.4898l0.03 0.0506 2.1384 3.6484-2.1384 3.6504-0.0512 0.0858 0.17208 0.1018 0.0506-0.0879 2.1699-3.6995a0.10001 0.10001 0 0 0 0-0.10128l-2.1399-3.6484h1.4898c0.3407 0 0.61947 0.24031 0.678 0.56276h0.2036c-0.0617-0.43142-0.43333-0.76378-0.8816-0.76378z"
       color="#000000"
       stroke-linejoin="round"
       stroke-miterlimit="0"
       style="-inkscape-stroke:none;paint-order:markers stroke fill"
       id="path84" /><g
       transform="matrix(-1 0 0 1 186.09 0)"
       id="g110"><path
         transform="rotate(12.334)"
         d="m234.71 142.35a17.658 12.458 0 0 1 3.7002 7.6302 17.658 12.458 0 0 1-4.0332 7.9141l-6.4427 1.4088-11.171-7.5803-0.70089-3.2465z"
         fill="url(#linearGradient37663)"
         stop-color="#000000"
         style="paint-order:markers stroke fill"
         id="path86" /><path
         d="m183.59 171-10.084 1.2738 0.38137 1.9523 10.236 2.0547a13.519 6.3603 0 0 0 0.97462-2.3621 13.519 6.3603 0 0 0-1.5079-2.9187z"
         fill="url(#linearGradient39185)"
         stop-color="#000000"
         style="paint-order:markers stroke fill"
         id="path88" /><g
         transform="matrix(.92337 0 0 .92337 .51389 12.899)"
         fill="#090705"
         stroke-width=".26458"
         id="g94"><path
           transform="scale(-1,1)"
           d="m-142.54 196.42a5.9507 6.018 0 0 1 5.9505 6.0182 5.9507 6.018 0 0 1-2.5006 4.8705h-6.9365a5.9507 6.018 0 0 1-2.4639-4.8705 5.9507 6.018 0 0 1 5.9505-6.0182z"
           id="path90" /><path
           transform="scale(-1,1)"
           d="m-175.43 196.42a5.9507 6.018 0 0 1 5.9511 6.0182 5.9507 6.018 0 0 1-2.4624 4.8705h-6.983a5.9507 6.018 0 0 1-2.4562-4.8705 5.9507 6.018 0 0 1 5.9505-6.0182z"
           id="path92" /></g><path
         d="m121.49 168.32c-6e-3 11.432-7e-3 22.863-0.0101 34.295h53.508c1.6567 0 2.6804-0.51062 3.3129-1.2091l-0.20136-0.0405 0.0897 0.0176 0.11166 0.0229c1.0492-1.1588 1.0232-2.8353 1.0288-3.5568l0.0271-3.3206-8e-3 -0.0143v-5e-3l0.0272-3.302c0.13832-1.2592-1.3208-2.6273-2.7222-2.9942l-3.103-15.733c-0.54411-3.2338-2.5368-4.1599-5.7775-4.1599l-9.3e-4 6e-3v-6e-3z"
         fill="#ff9b00"
         stroke-width=".26851"
         id="path96" /><path
         d="m121.46 199.26v3.3602h53.508c1.6567 0 2.6804-0.51061 3.3129-1.2091l-0.20135-0.041 0.20088 0.0405-3.7605-2.1506h-6.8382z"
         fill="#960110"
         stroke-width=".19501"
         id="path98" /><path
         d="m121.47 168.32v2.6005h46.282c0.48706 0 1.1134 0.29786 1.9312 1.3073 0.74882 0.92435 2.6203 4.6856 3.3362 7.3269 0.7159 2.6413 0.9328 3.5196 1.1342 4.42 0.3745 1.6806 0.70713 3.4902 0.95576 5.2726 0.56752 4.0685 2.49 4.7394 4.2191 5.2808v-0.0191l0.0272-3.302c0.13832-1.2592-1.3208-2.6273-2.7222-2.9942l-3.103-15.733c-0.54411-3.2339-2.5368-4.1599-5.7775-4.1599l-9.2e-4 6e-3v-6e-3z"
         fill="#090705"
         stroke-width=".21459"
         id="path100" /><path
         d="m121.46 177.68c0.0143 5.322 0.0124 10.658 0.0124 15.995h51.588v-2.5762c0-1.3722-3.1736-13.417-5.2989-13.419h-4.7e-4z"
         fill="#090705"
         stroke-width=".17339"
         id="path102" /><path
         d="m141.98 180.38h-15.52v10.599h15.52z"
         fill="#fea"
         stroke-width=".24431"
         id="path104" /><path
         d="m152.25 180.38v10.599h15.52v-9.7833l0.0114 9.7833h3.804l-3.8087-10.579-6e-3 -0.0176v-3e-3h-9.2e-4z"
         fill="#fea"
         stroke-width=".24431"
         id="path106" /><path
         d="m144.63 160.72c-0.44827 0-0.81814 0.33236-0.87953 0.76378h0.20153c0.0585-0.32245 0.3373-0.56276 0.678-0.56276h1.4898l0.03 0.0506 2.1384 3.6484-2.1384 3.6504-0.0512 0.0858 0.17208 0.1018 0.0506-0.0879 2.1699-3.6995a0.10001 0.10001 0 0 0 0-0.10128l-2.1399-3.6484h1.4898c0.3407 0 0.61947 0.24031 0.678 0.56276h0.2036c-0.0617-0.43142-0.43333-0.76378-0.8816-0.76378z"
         color="#000000"
         stroke-linejoin="round"
         stroke-miterlimit="0"
         style="-inkscape-stroke:none;paint-order:markers stroke fill"
         id="path108" /></g><rect
       x="194.21"
       y="215.49"
       width="6.3567"
       height="1.3931e-7"
       ry="6.9656e-8"
       fill="#32e3ab"
       stop-color="#000000"
       stroke-miterlimit="0"
       stroke-width="0"
       style="paint-order:markers stroke fill"
       id="rect112" /></g><text
     xml:space="preserve"
     style="font-style:normal;font-variant:normal;font-weight:normal;font-stretch:normal;font-size:4.23333px;line-height:1.25;font-family:sans-serif;-inkscape-font-specification:'sans-serif, Normal';font-variant-ligatures:normal;font-variant-caps:normal;font-variant-numeric:normal;font-variant-east-asian:normal;fill:#000000;fill-opacity:1;stroke:none;stroke-width:0.264583"
     x="35.196663"
     y="47.25444"
     id="text401"><tspan
       sodipodi:role="line"
       id="tspan399"
       style="font-style:normal;font-variant:normal;font-weight:normal;font-stretch:normal;font-size:4.23333px;font-family:sans-serif;-inkscape-font-specification:'sans-serif, Normal';font-variant-ligatures:normal;font-variant-caps:normal;font-variant-numeric:normal;font-variant-east-asian:normal;stroke-width:0.264583"
       x="35.196663"
       y="47.25444">GPNCTF{K4rlsruh</tspan></text><text
     xml:space="preserve"
     style="font-style:normal;font-weight:normal;font-size:10.5833px;line-height:1.25;font-family:sans-serif;fill:#000000;fill-opacity:1;stroke:none;stroke-width:0.264583"
     x="238.96399"
     y="43.396782"
     id="text455"><tspan
       sodipodi:role="line"
       id="tspan453"
       style="stroke-width:0.264583"
       x="238.96399"
       y="43.396782" /></text><text
     xml:space="preserve"
     style="font-style:normal;font-variant:normal;font-weight:normal;font-stretch:normal;font-size:4.23333px;line-height:1.25;font-family:sans-serif;-inkscape-font-specification:'sans-serif, Normal';font-variant-ligatures:normal;font-variant-caps:normal;font-variant-numeric:normal;font-variant-east-asian:normal;fill:#000000;fill-opacity:1;stroke:none;stroke-width:0.264583"
     x="91.115837"
     y="47.25444"
     id="text459"><tspan
       sodipodi:role="line"
       id="tspan457"
       style="font-style:normal;font-variant:normal;font-weight:normal;font-stretch:normal;font-size:4.23333px;font-family:sans-serif;-inkscape-font-specification:'sans-serif, Normal';font-variant-ligatures:normal;font-variant-caps:normal;font-variant-numeric:normal;font-variant-east-asian:normal;stroke-width:0.264583"
       x="91.115837"
       y="47.25444">3r_Vl4gg3n_V3r</tspan></text><text
     xml:space="preserve"
     style="font-style:normal;font-variant:normal;font-weight:normal;font-stretch:normal;font-size:4.23333px;line-height:1.25;font-family:sans-serif;-inkscape-font-specification:'sans-serif, Normal';font-variant-ligatures:normal;font-variant-caps:normal;font-variant-numeric:normal;font-variant-east-asian:normal;fill:#000000;fill-opacity:1;stroke:none;stroke-width:0.264583"
     x="142.88086"
     y="47.25444"
     id="text463"><tspan
       sodipodi:role="line"
       id="tspan461"
       style="font-style:normal;font-variant:normal;font-weight:normal;font-stretch:normal;font-size:4.23333px;font-family:sans-serif;-inkscape-font-specification:'sans-serif, Normal';font-variant-ligatures:normal;font-variant-caps:normal;font-variant-numeric:normal;font-variant-east-asian:normal;stroke-width:0.264583"
       x="142.88086"
       y="47.25444">bund_Ch0o_ch0o}</tspan></text></svg>
