<?xml version="1.0" encoding="UTF-8"?>
<!-- Created with Inkscape (http://www.inkscape.org/) -->
<svg width="321.79mm" height="48.214mm" version="1.1" viewBox="0 0 321.79 48.214" xmlns="http://www.w3.org/2000/svg">
 <g transform="translate(75.919 -121.58)">
  <path d="m-50.546 121.58v22.659l-9.6666 2.7404v12.812h-2.9342v-17.627h-0.09198v-5.2e-4h-9.3664v17.627h-3.314v9.9999h321.79v-19.607h-11.909v-1.3271c1.3e-4 -0.39275-0.31831-0.71119-0.71107-0.71106-0.0221 3.1e-4 -0.0442 2e-3 -0.0662 4e-3h-0.79736v-3.9951l-1.371-1.5033h-0.0408v-10.77h-2.4133v10.77h-0.0413l-1.3704 1.5028v6.0296h-3.745v6.4513h-4.9656v-7.8688c1.3e-4 -0.39277-0.3183-0.7112-0.71107-0.71107-0.0221 3e-4 -0.0442 2e-3 -0.0661 4e-3h-0.79736v-3.9951l-1.371-1.5028h-0.0403v-10.77h-2.4138v10.77h-0.0413l-1.3704 1.5028v15.727h-4.7992v-13.044h-5.812v-18.422h0.40204v-0.56379h-3.0076v0.56379h0.40153v18.422h-2.1089v-15.733h0.40204v-0.52761h-3.0076v0.52761h0.40152v15.733h-13.906v6.8306h-4.8932v-19.109h-0.34727v-0.58705h-0.80305v0.58705h-0.31936v-1.1741h-0.86248v1.1741h-0.33383v19.109h-5.7258v6.2131h-3.9512v-4.8612h0.60358v-0.30334h-0.60358v-5.7785h0.60358v-0.30282h-0.60358v-5.7785h0.60358v-0.30334h-0.60358v-0.85473h0.88264v-1.4945h-0.88264v-0.93741h0.44804v-0.60669h-4.0545v0.60669h0.44803v0.93741h-0.88212v1.4945h0.88212v0.85473h-0.60306v0.30334h0.60306v5.7785h-0.60306v0.30282h0.60306v5.7785h-0.60306v0.30334h0.60306v4.8612h-8.647v-9.9999l-6.3546-6.32v6.32l-2.1911-2.1916-0.53692-22.191h-1.8211l-0.46871 19.365-1.3022-1.3022v6.32l-6.32-6.32v6.32l-0.39791-0.3979v-20.93h-1.3028v19.627l-2.2708-2.271v-21.004h-1.3028v19.701l-1.0459-1.0459v6.32l-6.32-6.32v16.32h-5.4477v-0.63045h0.54312v-0.23668h-0.54312v-2.5538h0.54312v-0.23668h-0.54312v-2.5538h0.54312v-0.23616h-0.54312v-2.5544h0.54312v-0.23616h-0.54312v-2.5538h0.54312v-0.23668h-0.54312v-2.5538h0.54312v-0.23668h-0.54312v-2.5538h0.54312v-0.23668h-0.54312v-2.5538h0.54312v-0.23616h-0.54312v-2.5544h0.54312v-0.23616h-0.54312v-2.5538h0.54312v-0.23668h-0.54312v-2.5538h0.54312v-0.23668h-0.54312v-0.62838h0.13694v-0.71934h0.35916v-0.5395h-0.35916v-0.74931l0.57361-0.50953v-0.58446h-0.12454v-0.57723h-0.38395v0.57723h-0.42788v-0.416h-0.37517v0.416h-0.19379v0.58446h-1.2552v-0.81184h-0.71882v3.3295h0.18655v2.7259h-0.57361v0.79065h0.57361v9.308h-0.57361v0.58446l0.57361 0.50953v9.0046h-0.57361v0.58446l0.57361 0.50953v5.3826h-1.9554v-8.2713l-8.1959-2.9946v-4.6524h-5.6436v-19.057h-1.3028v19.057h-9.8159v9.8521h-4.4158l-2.7425-11.667 2.4004-9.1793h-12.356l2.4009 9.1793-3.2127 17.733h-1.0072v-5.9852h-14.323v-5.5712l11.387 5.5712 2.9363-5.2e-4 -15.335-7.5024-3.5641-0.57465v-11.26h-0.34727v-0.58705h-0.80305v0.58705h-0.31936v-1.1741h-0.86248v1.1741h-0.33383v10.83l-2.6665-0.42995v-20.053h-1.3022v19.843l-10.321-1.6635v-0.0248h-4.5041v-8.8268h-2.2738v8.8268h-6.1614v-11.468h-2.2743v19.189l-2.4148 2.3425v-5.2069l-5.3681 5.2069v-5.2069l-5.3676 5.2069v-5.2069l-3.576 3.469-1.111-8.23v-15.883l-2.0919-2.0727-0.59376 0.0393-1.5425 1.9802v16.776l-0.78496 8.1008-1.0645 1.0273v6.7567h-8.2207v-8.1447h-2.6572v-14.776h-1.3028v14.776h-4.5765v-26.83h-1.3028v26.83h-7.999v-11.816l-1.8872 0.53485v-2.5611h-6.4079v4.378l-5.9505 1.6867v-22.29h-1.3028zm45.715 4.7744 0.82837 0.8201h-0.82837zm-0.80098 0.20257v0.61753h-0.48059zm-0.65991 1.4159h0.65991v7.1722h-0.65991zm1.4609 0h1.1736v7.1722h-1.1736zm-1.4609 7.9711h0.65991v7.1717h-0.65991zm1.4609 0h1.1736v7.1717h-1.1736zm-63.03 6.6161h0.02687l4.3232 5.4798h-4.3501v-5.4798zm0.26097 0h4.27v5.4121zm61.308 1.3565h0.65991v5.9283l-0.24391 0.23565h-1.0103l0.59428-6.135v-0.0289zm1.4609 0h1.2811l0.83251 6.164h-0.82372v-2.2526l-1.2898 1.2444v-5.1558zm35.022 0.38706 10.321 1.6635v7.8393h-3.822v-3.3972h-6.4988v-6.1056zm11.623 1.8733 2.6665 0.42995v7.1996h-2.6665v-7.6295zm5.3325 0.85938 1.7663 0.28473v6.4854h-1.7663v-6.7701zm-115.01 1.3994h0.02739l4.3222 5.4803h-4.3496v-5.4803zm0.262 0h4.269v5.4136zm60.619 2.6138h0.099736l-0.11007 0.10645 0.010335-0.10645zm3.4391 0h0.95446l0.12661 0.93689-1.0811 1.0485v-1.9854zm-64.32 3.2618h0.02687l4.3232 5.4803h-4.3501v-5.4803zm0.26045 0h4.2705v5.4131z" stop-color="#000000" style="fill:#131313;fill-opacity:1;paint-order:stroke fill markers"/>
 </g>
</svg>
