<?xml version="1.0" encoding="UTF-8"?>
<!-- Created with Inkscape (http://www.inkscape.org/) -->
<svg width="250mm" height="65mm" version="1.1" viewBox="0 0 250 65" xmlns="http://www.w3.org/2000/svg">
 <g transform="translate(-28.612 -45.45)">
  <rect x="28.749" y="45.586" width="249.73" height="64.726" fill="#30444a" stop-color="#000000" stroke="#fff" stroke-linecap="round" stroke-linejoin="round" stroke-miterlimit="0" stroke-width=".27388" style="paint-order:markers stroke fill"/>
  <g fill="none">
   <path d="m28.744 105.45v-55.013" stop-color="#000000" stroke="#000" stroke-width="1.4238" style="font-variation-settings:normal"/>
   <path d="m278.52 105.45v-55.013" stop-color="#000000" stroke="#000" stroke-width="1.4239" style="font-variation-settings:normal"/>
   <path d="m28.612 55.65h250" stop-color="#000000" stroke="#060000" stroke-width=".20004" style="font-variation-settings:normal"/>
   <path d="m28.612 99.85h250" stop-color="#000000" stroke="#2f160e" stroke-width="1.2" style="font-variation-settings:normal"/>
   <path d="m28.612 80.575h250" stop-color="#000000" stroke="#060000" stroke-width=".25037" style="font-variation-settings:normal"/>
  </g>
  <g>
   <path d="m52.112 50.449 1.3498 1.3498v5.1501h0.30076v-5.1501l1.3493-1.3498h-1.65z" color="#000000" style="-inkscape-stroke:none"/>
   <path d="m102.86 50.449 1.3498 1.3498v5.1501h0.30075v-5.1501l1.3493-1.3498h-1.65z" color="#000000" style="-inkscape-stroke:none"/>
   <path d="m153.61 50.449 1.3498 1.3498v5.1501h0.30075v-5.1501l1.3493-1.3498h-1.65z" color="#000000" style="-inkscape-stroke:none"/>
   <path d="m204.36 50.449 1.3498 1.3498v5.1501h0.30075v-5.1501l1.3493-1.3498h-1.65z" color="#000000" style="-inkscape-stroke:none"/>
   <path d="m255.11 50.449 1.3498 1.3498v5.1501h0.30075v-5.1501l1.3493-1.3498h-1.65z" color="#000000" style="-inkscape-stroke:none"/>
  </g>
  <g>
   <rect x="28.612" y="100.45" width="250" height="5" fill="#352d24" stop-color="#000000" style="paint-order:markers stroke fill"/>
   <rect x="28.612" y="105.45" width="250" height="5" fill="#0c1013" stop-color="#000000" stroke-miterlimit="0" stroke-width="0" style="paint-order:markers stroke fill"/>
   <rect x="28.612" y="45.45" width="250" height="5" fill="#0c1013" stop-color="#000000" stroke-miterlimit="0" stroke-width="0" style="paint-order:markers stroke fill"/>
  </g>
 </g>
</svg>
