<?xml version="1.0" encoding="UTF-8" standalone="no"?>
<!-- Created with Inkscape (http://www.inkscape.org/) -->

<svg
   width="3.5718677mm"
   height="3.5718677mm"
   viewBox="0 0 3.5718677 3.5718677"
   version="1.1"
   id="svg5"
   xml:space="preserve"
   inkscape:version="1.2.2 (732a01da63, 2022-12-09, custom)"
   sodipodi:docname="side-up.svg"
   xmlns:inkscape="http://www.inkscape.org/namespaces/inkscape"
   xmlns:sodipodi="http://sodipodi.sourceforge.net/DTD/sodipodi-0.dtd"
   xmlns="http://www.w3.org/2000/svg"
   xmlns:svg="http://www.w3.org/2000/svg"><sodipodi:namedview
     id="namedview7"
     pagecolor="#505050"
     bordercolor="#eeeeee"
     borderopacity="1"
     inkscape:showpageshadow="0"
     inkscape:pageopacity="0"
     inkscape:pagecheckerboard="0"
     inkscape:deskcolor="#505050"
     inkscape:document-units="mm"
     showgrid="false"
     inkscape:zoom="34.268093"
     inkscape:cx="-1.0505399"
     inkscape:cy="2.5825773"
     inkscape:window-width="1920"
     inkscape:window-height="1016"
     inkscape:window-x="0"
     inkscape:window-y="27"
     inkscape:window-maximized="1"
     inkscape:current-layer="layer1" /><defs
     id="defs2" /><g
     inkscape:label="Layer 1"
     inkscape:groupmode="layer"
     id="layer1"
     transform="translate(-56.56583,-150.46065)"><g
       id="g1239"><path
         style="color:#000000;fill:#0f172a;stroke-linecap:round;-inkscape-stroke:none;fill-opacity:1"
         d="m 56.746094,153.65625 a 0.18813901,0.18813901 0 0 0 -0.1875,0.1875 0.18813901,0.18813901 0 0 0 0.1875,0.18945 h 3.210937 a 0.18813901,0.18813901 0 0 0 0.1875,-0.18945 0.18813901,0.18813901 0 0 0 -0.1875,-0.1875 z"
         id="path1093" /><path
         id="path1099"
         style="color:#000000;fill:#0f172a;stroke-linecap:round;-inkscape-stroke:none;fill-opacity:1"
         d="m 57.338909,150.46116 a 0.19837549,0.19837549 0 0 0 -0.128674,0.0579 l -0.586011,0.58601 a 0.19837549,0.19837549 0 0 0 0,0.28164 0.19837549,0.19837549 0 0 0 0.279569,0 l 0.274919,-0.27492 v 1.97094 a 0.1717245,0.1717245 0 0 0 0.171566,0.17156 0.1717245,0.1717245 0 0 0 0.172082,-0.17156 v -1.97094 l 0.273885,0.27492 a 0.19837549,0.19837549 0 0 0 0.28112,0 0.19837549,0.19837549 0 0 0 0,-0.28164 l -0.580326,-0.57981 a 0.19837549,0.19837549 0 0 0 -0.0057,-0.006 0.19837549,0.19837549 0 0 0 -0.152445,-0.0579 z" /><path
         id="path1228"
         style="color:#000000;fill:#0f172a;stroke-linecap:round;-inkscape-stroke:none;fill-opacity:1"
         d="m 59.340589,150.46116 a 0.19837549,0.19837549 0 0 0 -0.128674,0.0579 l -0.586011,0.58601 a 0.19837549,0.19837549 0 0 0 0,0.28164 0.19837549,0.19837549 0 0 0 0.279569,0 l 0.274919,-0.27492 v 1.97094 a 0.1717245,0.1717245 0 0 0 0.171566,0.17156 0.1717245,0.1717245 0 0 0 0.172082,-0.17156 v -1.97094 l 0.273885,0.27492 a 0.19837549,0.19837549 0 0 0 0.28112,0 0.19837549,0.19837549 0 0 0 0,-0.28164 l -0.580326,-0.57981 a 0.19837549,0.19837549 0 0 0 -0.0057,-0.006 0.19837549,0.19837549 0 0 0 -0.152445,-0.0579 z" /></g></g></svg>
